# xmcd
#
# Track frame offsets:
#	150
#	13637
#	34164
#	52045
#	65018
#	85089
#	97976
#	113155
#	125304
#	127102
#	141026
#	155834
#
# Disc length: 2308 seconds
# Revision: 0
# Processed by: cddbd v1.5.2PL0 Copyright (c) Steve Scherf et al.
# Submitted via: dBpowerAMP V12.0
#
DISCID=a409020c
DTITLE=Sandy Saunders Band - Rattlesnake Road
DYEAR=2014
DGENRE=Blues
TTITLE0=Concrete Cowboy
TTITLE1=Shake These Blues
TTITLE2=Different Girl
TTITLE3=Flash of Lightning
TTITLE4=Rattlesnake Road
TTITLE5=Slip and Slide
TTITLE6=Shoot Myself
TTITLE7=13th Page
TTITLE8=Heresy
TTITLE9=Where I'm Goin'
TTITLE10=No Free Lunch
TTITLE11=Different Girl v2
EXTD=
EXTT0=
EXTT1=
EXTT2=
EXTT3=
EXTT4=
EXTT5=
EXTT6=
EXTT7=
EXTT8=
EXTT9=
EXTT10=
EXTT11=
PLAYORDER=
